<?xml version="1.0" standalone="no"?>
<!DOCTYPE svg PUBLIC "-//W3C//DTD SVG 20010904//EN"
 "http://www.w3.org/TR/2001/REC-SVG-20010904/DTD/svg10.dtd">
<svg version="1.0" xmlns="http://www.w3.org/2000/svg"
 width="1024.000000pt" height="640.000000pt" viewBox="0 0 1024.000000 640.000000"
 preserveAspectRatio="xMidYMid meet">

<g transform="translate(0.000000,640.000000) scale(0.100000,-0.100000)"
fill="#000000" stroke="none">
<path d="M4805 5393 c-786 -47 -1338 -144 -1920 -337 -262 -87 -397 -142 -630
-256 -432 -212 -737 -435 -963 -705 -239 -285 -354 -577 -354 -900 1 -594 440
-1146 1237 -1556 841 -433 1954 -657 3155 -636 448 8 769 36 1165 102 1443
240 2519 851 2837 1611 66 159 89 266 95 439 8 228 -28 395 -127 600 -434 891
-1878 1533 -3674 1635 -159 9 -692 11 -821 3z m132 -310 c-223 -371 -320 -646
-349 -990 -19 -223 13 -462 93 -706 51 -156 157 -378 245 -512 l18 -28 -154 6
c-161 7 -445 36 -609 62 -204 32 -387 68 -399 77 -20 17 -105 163 -170 293
-70 140 -124 287 -158 435 -34 143 -43 373 -20 513 33 203 115 400 242 587
107 158 94 148 225 170 356 60 1054 123 1036 93z m933 -18 c148 -13 467 -51
493 -58 4 -1 -13 -35 -38 -74 -155 -250 -246 -519 -264 -783 -23 -333 50 -657
229 -1017 49 -99 82 -176 76 -178 -23 -8 -337 -55 -461 -69 -122 -14 -333 -31
-507 -39 l-78 -4 -61 87 c-177 250 -292 510 -346 778 -26 131 -24 413 5 547
56 262 186 543 361 779 l44 59 186 -6 c103 -4 266 -13 361 -22z m1111 -184
c399 -101 700 -209 1009 -362 210 -104 350 -188 508 -305 109 -82 323 -278
343 -316 11 -21 -64 -64 -416 -238 -398 -196 -702 -322 -1080 -449 -194 -64
-600 -181 -631 -181 -20 0 -76 91 -155 250 -287 575 -258 1098 89 1583 41 56
61 77 78 77 12 0 127 -27 255 -59z m-3701 -133 c-71 -149 -112 -269 -142 -420
-29 -147 -31 -430 -5 -578 34 -183 94 -370 178 -549 27 -57 49 -105 49 -107 0
-1 -52 13 -115 32 -369 110 -779 270 -1163 455 -217 104 -562 291 -562 304 0
15 202 214 285 281 211 169 551 360 860 484 173 70 621 217 667 220 4 0 -20
-55 -52 -122z m-1767 -1218 c962 -536 1944 -852 2992 -966 199 -21 865 -31
1087 -15 792 56 1535 229 2313 541 323 129 686 300 979 460 70 38 132 70 136
70 13 0 66 -145 86 -235 27 -119 23 -283 -9 -406 -55 -211 -165 -389 -361
-584 -209 -207 -418 -350 -751 -515 -634 -312 -1423 -503 -2320 -560 -206 -13
-754 -13 -960 0 -1232 79 -2289 418 -2930 940 -106 86 -277 270 -339 364 -76
113 -141 254 -167 362 -30 118 -32 296 -5 409 17 74 72 225 82 225 2 0 77 -41
167 -90z"/>
</g>
</svg>
