<?xml version="1.0" encoding="UTF-8" standalone="no"?>
<!-- Created with Inkscape (http://www.inkscape.org/) -->
<svg
   xmlns:svg="http://www.w3.org/2000/svg"
   xmlns="http://www.w3.org/2000/svg"
   version="1.0"
   width="450"
   height="450"
   id="svg2">
  <defs
     id="defs5" />
  <path
     d="M 50 25 A 5 5 0 1 1  40,25 A 5 5 0 1 1  50 25 z"
     transform="matrix(5,0,0,5,-43.53315,-20.7)"
     style="opacity:1;fill:#000000;fill-opacity:1;stroke:#000000;stroke-width:0.30000001;stroke-linecap:round;stroke-linejoin:round;stroke-miterlimit:4;stroke-dasharray:none;stroke-dashoffset:0;stroke-opacity:1"
     id="path2163" />
  <path
     d="M 75,166.8 L 375,166.8 L 375,204.3 L 75,204.3 L 75,166.8 L 75,166.8 L 75,166.8 z "
     style="fill:#000000;fill-rule:evenodd;stroke:#000000;stroke-width:5px;stroke-linecap:butt;stroke-linejoin:miter;stroke-opacity:1"
     id="path2165" />
  <path
     d="M 75,246.8 L 375,246.8 L 375,284.3 L 75,284.3 L 75,246.8 L 75,246.8 L 75,246.8 z "
     style="fill:#000000;fill-rule:evenodd;stroke:#000000;stroke-width:5px;stroke-linecap:butt;stroke-linejoin:miter;stroke-opacity:1"
     id="path3138" />
  <path
     d="M 75,326.8 L 375,326.8 L 375,364.3 L 75,364.3 L 75,326.8 L 75,326.8 L 75,326.8 z "
     style="fill:#000000;fill-rule:evenodd;stroke:#000000;stroke-width:5px;stroke-linecap:butt;stroke-linejoin:miter;stroke-opacity:1"
     id="path3140" />
  <path
     d="M 50 25 A 5 5 0 1 1  40,25 A 5 5 0 1 1  50 25 z"
     transform="matrix(5,0,0,5,48.46685,-20.7)"
     style="opacity:1;fill:#000000;fill-opacity:1;stroke:#000000;stroke-width:0.30000001;stroke-linecap:round;stroke-linejoin:round;stroke-miterlimit:4;stroke-dasharray:none;stroke-dashoffset:0;stroke-opacity:1"
     id="path3160" />
</svg>
